<?xml version="1.0" encoding="UTF-8" standalone="no"?>
<svg
   xmlns:dc="http://purl.org/dc/elements/1.1/"
   xmlns:cc="http://creativecommons.org/ns#"
   xmlns:rdf="http://www.w3.org/1999/02/22-rdf-syntax-ns#"
   xmlns:svg="http://www.w3.org/2000/svg"
   xmlns="http://www.w3.org/2000/svg"
   viewBox="0 0 106.78667 159.64"
   height="159.64"
   width="106.78667"
   xml:space="preserve"
   id="svg2"
   version="1.1"><metadata
     id="metadata8"><rdf:RDF><cc:Work
         rdf:about=""><dc:format>image/svg+xml</dc:format><dc:type
           rdf:resource="http://purl.org/dc/dcmitype/StillImage" /></cc:Work></rdf:RDF></metadata><defs
     id="defs6" /><g
     transform="matrix(1.3333333,0,0,-1.3333333,0,159.64)"
     id="g10"><g
       transform="scale(0.1)"
       id="g12"><path
         id="path14"
         style="fill:none;stroke:#0b4476;stroke-width:5.66900015;stroke-linecap:butt;stroke-linejoin:miter;stroke-miterlimit:22.92560005;stroke-dasharray:none;stroke-opacity:1"
         d="M 2.83594,226.328 H 607.031 V 1194.49 H 2.83594 Z" /><path
         id="path16"
         style="fill:#0b4476;fill-opacity:1;fill-rule:evenodd;stroke:none"
         d="M 22.8438,1173.82 H 587.027 V 246.992 H 22.8438 v 926.828" /><path
         id="path18"
         style="fill:none;stroke:#0b4476;stroke-width:2.16000009;stroke-linecap:butt;stroke-linejoin:miter;stroke-miterlimit:2.61310005;stroke-dasharray:none;stroke-opacity:1"
         d="M 22.8438,1173.82 H 587.027 V 246.992 H 22.8438 Z" /><path
         id="path20"
         style="fill:#ffffff;fill-opacity:1;fill-rule:nonzero;stroke:none"
         d="m 454.477,387.52 v 78.703 h 22.746 l 13.644,-53.688 13.496,53.688 h 22.805 V 387.52 h -14.105 v 61.953 L 498.109,387.52 h -14.632 l -14.899,61.953 V 387.52 Z m -35.848,31.128 -10.367,29.215 -10.16,-29.215 h 20.527 z m 27.992,-31.128 h -16.547 l -6.566,17.882 H 393.414 L 387.211,387.52 H 371.09 l 29.32,78.703 h 16.07 l 30.141,-78.703 z m -143.773,0 v 78.703 h 15.215 V 435.25 h 29.769 v 30.973 h 15.195 V 387.52 h -15.195 v 34.406 H 318.063 V 387.52 h -15.215 z m -60.719,45.421 h 11.23 c 7.289,0 11.844,0.313 13.668,0.95 1.805,0.648 3.227,1.757 4.258,3.339 1.02,1.575 1.543,3.532 1.543,5.895 0,2.656 -0.68,4.785 -2.039,6.418 -1.34,1.629 -3.25,2.66 -5.723,3.094 -1.226,0.168 -4.925,0.258 -11.097,0.258 h -11.84 V 432.941 Z M 226.918,387.52 v 78.703 h 31.996 c 8.043,0 13.883,-0.723 17.527,-2.129 3.641,-1.41 6.571,-3.922 8.758,-7.531 2.188,-3.629 3.281,-7.754 3.281,-12.407 0,-5.902 -1.667,-10.793 -4.98,-14.64 -3.309,-3.832 -8.289,-6.266 -14.895,-7.258 3.293,-2.012 6.008,-4.211 8.149,-6.617 2.137,-2.399 5.016,-6.653 8.641,-12.762 l 9.199,-15.359 h -18.168 l -10.996,17.128 c -3.907,6.118 -6.567,9.973 -8.008,11.571 -1.438,1.586 -2.965,2.668 -4.57,3.273 -1.614,0.586 -4.157,0.879 -7.657,0.879 h -3.066 V 387.52 h -15.211 z m -76.078,78.703 h 15.195 v -42.629 c 0,-6.762 0.192,-11.156 0.551,-13.153 0.656,-3.222 2.215,-5.812 4.648,-7.753 2.454,-1.961 5.805,-2.926 10.043,-2.926 4.313,0 7.575,0.91 9.762,2.761 2.191,1.832 3.508,4.106 3.941,6.782 0.458,2.695 0.668,7.144 0.668,13.379 v 43.539 h 15.196 v -41.344 c 0,-9.453 -0.406,-16.121 -1.231,-20.024 -0.82,-3.906 -2.328,-7.187 -4.539,-9.878 -2.203,-2.676 -5.168,-4.821 -8.847,-6.411 -3.7,-1.597 -8.536,-2.382 -14.493,-2.382 -7.179,0 -12.632,0.859 -16.347,2.601 -3.715,1.738 -6.641,3.992 -8.801,6.758 -2.152,2.77 -3.574,5.68 -4.258,8.723 -1,4.507 -1.488,11.16 -1.488,19.976 v 41.981 z M 90.1484,452.895 v -52.114 h 11.3396 c 4.242,0 7.313,0.246 9.203,0.758 2.454,0.641 4.5,1.723 6.129,3.262 1.633,1.535 2.946,4.082 3.981,7.597 1.015,3.52 1.543,8.336 1.543,14.418 0,6.09 -0.528,10.739 -1.543,14.004 -1.035,3.262 -2.473,5.813 -4.313,7.621 -1.847,1.836 -4.203,3.063 -7.039,3.707 -2.125,0.516 -6.273,0.747 -12.4802,0.747 h -6.8204 z m -15.1875,13.328 h 27.7731 c 6.254,0 11.028,-0.5 14.317,-1.504 4.418,-1.36 8.203,-3.781 11.344,-7.262 3.148,-3.461 5.55,-7.711 7.195,-12.73 1.633,-5.039 2.457,-11.239 2.457,-18.618 0,-6.468 -0.777,-12.054 -2.317,-16.754 -1.867,-5.71 -4.554,-10.351 -8.066,-13.878 -2.621,-2.7 -6.18,-4.789 -10.668,-6.293 -3.348,-1.118 -7.824,-1.664 -13.457,-1.664 H 74.9609 v 78.703 0" /><path
         id="path22"
         style="fill:#ffffff;fill-opacity:1;fill-rule:nonzero;stroke:none"
         d="m 468.328,285.617 v 78.699 h 14.863 l 30.981,-52.546 v 52.546 h 14.195 v -78.699 h -15.344 l -30.5,51.321 v -51.321 z m -80,39.395 c 0,-8.907 1.988,-15.664 5.942,-20.266 3.957,-4.598 8.976,-6.883 15.082,-6.883 6.074,0 11.074,2.266 14.984,6.844 3.891,4.566 5.852,11.398 5.852,20.527 0,9.008 -1.907,15.739 -5.692,20.196 -3.808,4.429 -8.859,6.644 -15.144,6.644 -6.317,0 -11.387,-2.254 -15.247,-6.742 -3.832,-4.484 -5.777,-11.242 -5.777,-20.32 z m -15.734,-0.535 c 0,8.035 1.144,14.753 3.457,20.199 1.722,3.988 4.07,7.601 7.047,10.789 2.972,3.168 6.238,5.531 9.773,7.07 4.723,2.09 10.152,3.121 16.313,3.121 11.152,0 20.062,-3.593 26.761,-10.793 6.692,-7.179 10.039,-17.187 10.039,-30 0,-12.715 -3.328,-22.644 -9.964,-29.828 -6.641,-7.164 -15.528,-10.758 -26.622,-10.758 -11.257,0 -20.21,3.575 -26.847,10.7 -6.645,7.148 -9.957,16.992 -9.957,29.5 z m -37.02,-38.86 v 78.699 h 15.278 v -78.699 h -15.278 z m -56.812,28.934 v 13.262 h 32.922 v -31.348 c -3.207,-3.227 -7.836,-6.063 -13.914,-8.52 -6.082,-2.437 -12.227,-3.668 -18.446,-3.668 -7.91,0 -14.816,1.731 -20.703,5.172 -5.879,3.461 -10.301,8.391 -13.262,14.824 -2.961,6.43 -4.441,13.411 -4.441,20.961 0,8.192 1.656,15.485 4.945,21.856 3.317,6.359 8.145,11.25 14.528,14.644 4.839,2.618 10.882,3.922 18.105,3.922 9.391,0 16.734,-2.051 22.008,-6.14 5.281,-4.098 8.68,-9.77 10.195,-17 l -15.172,-2.953 c -1.074,3.867 -3.082,6.925 -6.019,9.164 -2.942,2.23 -6.61,3.347 -11.012,3.347 -6.676,0 -11.976,-2.199 -15.93,-6.594 -3.945,-4.414 -5.89,-10.933 -5.89,-19.609 0,-9.328 1.98,-16.34 5.984,-21.012 3.981,-4.671 9.215,-6.996 15.676,-6.996 3.211,0 6.414,0.653 9.637,1.953 3.211,1.301 5.972,2.895 8.277,4.747 v 9.988 H 278.762 Z M 162.781,285.617 v 78.699 h 56.09 v -13.32 h -40.812 v -17.445 h 37.98 v -13.246 h -37.98 v -21.426 h 42.261 v -13.262 h -57.539 z m -71.2771,45.426 h 11.2891 c 7.328,0 11.91,0.305 13.738,0.949 1.813,0.645 3.239,1.758 4.289,3.336 1.016,1.57 1.547,3.539 1.547,5.902 0,2.657 -0.687,4.782 -2.051,6.411 -1.347,1.636 -3.269,2.664 -5.753,3.101 -1.239,0.156 -4.954,0.254 -11.157,0.254 H 91.5039 v -19.953 z m -15.293,-45.426 v 78.699 h 32.1681 c 8.082,0 13.957,-0.711 17.617,-2.125 3.66,-1.414 6.602,-3.925 8.805,-7.531 2.207,-3.629 3.301,-7.746 3.301,-12.406 0,-5.895 -1.676,-10.789 -5.012,-14.641 -3.324,-3.828 -8.328,-6.265 -14.969,-7.25 3.317,-2.023 6.043,-4.218 8.188,-6.617 2.152,-2.402 5.039,-6.648 8.687,-12.773 l 9.246,-15.356 H 125.98 l -11.046,17.133 c -3.934,6.125 -6.61,9.965 -8.055,11.563 -1.441,1.589 -2.977,2.675 -4.594,3.277 -1.625,0.59 -4.1795,0.879 -7.6991,0.879 h -3.082 v -32.852 h -15.293 v 0" /><path
         id="path24"
         style="fill:#ffffff;fill-opacity:1;fill-rule:evenodd;stroke:none"
         d="M 76.9453,1133.78 H 266.523 l 16.512,-1.79 12.524,-1.79 11.957,-2.38 13.66,-3.57 12.523,-3.57 21.645,-7.74 14.797,-7.15 10.246,-5.35 11.386,-6.55 10.821,-6.55 7.969,-5.95 10.242,-7.15 11.961,-10.12 5.691,-5.35 7.402,-7.14 6.258,-6.55 6.266,-6.55 9.68,-11.31 13.66,-17.85 6.832,-10.722 7.402,-12.503 7.969,-14.29 9.683,-19.636 9.676,-26.192 6.832,-22.625 4.551,-19.047 3.418,-20.242 1.703,-19.05 1.145,-15.473 v -20.235 l -1.145,-17.867 -3.41,-27.375 -3.418,-20.238 -3.418,-13.102 -3.414,-11.906 -6.262,-17.851 -6.258,-15.485 -5.125,-11.301 -6.828,-13.691 -7.41,-13.098 -9.676,-15.476 -6.832,-10.117 -13.668,-16.672 -14.226,-16.074 -12.524,-11.903 -22.773,-19.051 -23.91,-16.074 -28.465,-14.281 -28.473,-11.313 -18.211,-5.355 -15.371,-2.98 -20.5,-3.571 -17.082,-1.785 H 210.738 77.5156 v 15.473 H 244.32 l 21.633,1.191 10.82,1.192 13.661,2.382 13.664,2.981 13.093,3.566 15.375,5.36 22.2,8.929 13.093,7.145 14.809,8.926 14.797,10.117 11.961,10.125 14.23,12.496 12.528,13.101 11.379,13.094 12.531,17.86 10.812,16.668 9.68,19.046 7.969,17.86 7.402,20.238 5.699,19.645 3.41,16.668 2.844,19.046 1.707,20.235 0.574,16.074 -0.574,16.672 -1.707,17.262 -2.273,17.855 -3.981,17.266 -5.699,21.429 -6.832,19.047 -9.109,20.235 -7.403,13.699 -13.093,20.832 -18.211,24.406 -11.391,13.09 -19.93,18.46 -18.215,14.29 -24.476,15.47 -22.207,10.72 -13.664,5.35 -13.66,4.77 -14.801,4.16 -23.348,4.76 -26.758,2.38 -9.109,0.6 -166.8047,1.19 v 47.63" /><path
         id="path26"
         style="fill:#ffffff;fill-opacity:1;fill-rule:evenodd;stroke:none"
         d="M 75.2344,869.898 H 253.992 l 7.977,-1.191 9.105,-2.383 9.106,-3.57 7.968,-3.574 3.993,-2.375 5.121,-2.985 3.988,-2.375 5.121,-3.574 7.399,-6.543 7.972,-7.742 8.539,-10.715 4.555,-7.738 6.828,-13.094 5.129,-13.098 3.41,-14.289 1.711,-12.504 0.57,-10.71 -0.57,-8.333 -1.711,-11.308 -1.707,-8.332 -2.269,-8.336 -4.563,-11.906 -6.258,-11.903 -3.988,-5.953 -5.125,-7.144 -6.258,-7.141 -9.68,-8.934 -7.402,-5.953 -7.973,-5.355 -9.671,-4.766 -7.969,-3.566 -8.539,-2.981 -10.25,-2.379 -7.399,-1.191 -7.972,-0.594 H 76.9375 l -1.7031,234.535" /><path
         id="path28"
         style="fill:#ffffff;fill-opacity:1;fill-rule:evenodd;stroke:none"
         d="m 76.3555,1020.09 v 46.43 H 255.691 l 23.911,-1.78 14.238,-2.97 13.66,-2.98 13.09,-4.17 14.801,-5.36 14.234,-6.55 13.094,-6.54 12.523,-8.34 12.531,-8.33 13.086,-10.71 10.821,-10.126 11.386,-11.309 7.403,-8.335 9.683,-11.907 9.102,-13.093 8.539,-13.692 6.27,-12.5 5.121,-10.117 6.261,-14.293 4.551,-12.5 3.988,-12.5 3.414,-14.285 3.989,-19.645 2.281,-23.808 0.562,-22.621 -1.14,-27.379 -2.84,-19.645 -3.988,-16.668 -6.266,-22.625 -9.101,-23.808 -9.688,-20.239 -11.953,-19.636 -14.231,-19.649 -17.644,-20.246 -13.668,-13.09 -14.805,-11.902 -18.785,-13.102 -23.344,-11.906 -22.199,-9.519 -16.512,-5.356 -21.636,-4.769 -15.367,-2.379 -13.098,-1.188 H 77.4961 v 14.879 H 248.855 l 11.387,0.598 9.68,1.191 15.375,2.379 13.664,2.973 9.676,2.98 10.816,4.168 14.231,6.543 9.679,4.172 11.957,7.738 11.383,7.735 10.25,8.336 9.11,7.742 10.816,10.715 7.398,7.734 6.832,8.93 6.836,8.929 6.828,11.309 6.836,11.309 6.262,12.5 7.402,17.863 6.258,17.851 4.555,18.457 3.988,23.215 1.133,21.43 -0.562,23.812 -1.141,14.883 -2.277,16.067 -4.555,18.453 -6.262,19.648 -7.402,18.453 -6.828,14.282 -9.114,14.886 -7.398,11.313 -9.684,12.5 -13.089,14.281 -14.235,13.094 -9.676,8.336 -9.675,6.551 -11.395,7.14 -11.953,6.547 -15.941,7.145 -13.665,4.77 -16.507,4.76 -14.805,2.97 -14.227,1.79 -184.4605,1.78" /><path
         id="path30"
         style="fill:#ffffff;fill-opacity:1;fill-rule:evenodd;stroke:none"
         d="m 75.2344,952.359 v 48.211 l 177.0506,-0.59 7.973,-0.597 10.246,-1.188 11.957,-2.972 14.227,-3.578 10.25,-3.567 14.804,-5.363 15.946,-7.735 11.953,-7.738 11.957,-8.336 11.382,-9.523 13.09,-13.098 12.528,-13.687 11.953,-16.672 10.82,-18.449 9.68,-21.43 6.262,-18.457 5.125,-20.832 2.273,-17.258 1.711,-22.027 -0.567,-22.621 -2.851,-20.836 -3.414,-14.883 -3.985,-14.289 -6.832,-18.453 -7.972,-17.856 -10.25,-17.265 -9.676,-13.094 -13.664,-16.66 -17.074,-16.082 -9.684,-7.739 -9.105,-7.14 -10.821,-7.145 -12.523,-5.949 -16.512,-6.551 -15.371,-5.355 -15.941,-4.168 -10.242,-1.785 -9.114,-1.188 H 77.5117 v 14.879 H 250.012 l 7.972,0.594 13.661,1.789 13.664,2.976 18.214,5.95 17.649,8.929 13.101,7.145 11.379,7.738 10.817,9.52 12.523,12.507 13.098,17.258 7.398,12.5 7.403,14.285 5.691,13.692 3.988,12.504 2.274,9.519 1.707,7.742 1.711,8.93 0.57,7.738 0.57,11.317 0.567,14.875 -0.567,15.48 -1.14,10.117 -2.278,13.102 -3.414,13.684 -5.121,16.671 -7.406,17.258 -10.816,17.86 -8.539,12.504 -6.833,8.925 -13.66,13.098 -13.09,10.121 -10.25,6.543 -7.972,5.359 -9.68,4.762 -7.973,3.57 -17.082,5.958 -13.66,3.57 -15.937,1.785 -11.957,0.598 -171.3596,0.593" /><path
         id="path32"
         style="fill:#ffffff;fill-opacity:1;fill-rule:evenodd;stroke:none"
         d="m 75.7891,888.16 v 47.024 H 253.219 l 12.558,-1.196 11.981,-1.781 9.121,-1.785 7.988,-2.383 10.274,-4.164 10.269,-4.762 9.133,-5.363 9.117,-6.543 8.567,-6.547 10.836,-10.719 6.273,-7.14 6.848,-8.934 8.558,-13.094 5.129,-8.929 4.567,-9.524 3.996,-10.715 3.421,-10.714 4,-14.286 1.704,-9.531 1.14,-11.301 1.145,-17.265 -1.145,-16.664 -1.707,-15.481 -2.851,-12.5 -2.856,-12.5 -5.703,-14.289 -4.566,-11.312 -5.703,-10.117 -7.418,-11.903 -9.704,-13.097 -6.839,-7.743 -7.414,-7.14 -13.122,-10.117 -10.843,-6.551 -10.84,-5.352 -15.406,-5.957 -12.551,-4.168 -9.125,-1.785 -8.559,-1.191 H 257.219 77.5039 v 15.476 H 250.371 l 6.274,0.598 8.558,1.191 7.414,1.782 6.278,1.789 14.832,5.957 9.703,5.355 8.55,5.356 10.848,8.929 12.547,13.094 5.133,6.551 6.851,10.715 8.555,16.664 5.707,17.265 2.852,11.313 2.281,17.851 0.57,14.879 -1.14,16.676 -2.282,12.5 -3.996,14.883 -6.273,14.281 -3.422,6.547 -3.996,7.148 -4.567,7.141 -4.558,6.547 -10.844,11.902 -3.988,3.574 -5.141,4.762 -5.137,3.574 -6.839,4.762 -9.129,5.356 -5.703,2.382 -6.278,2.383 -7.984,2.379 -11.414,2.379 -13.692,2.387 -175.1519,1.191" /><path
         id="path34"
         style="fill:#0b4476;fill-opacity:1;fill-rule:nonzero;stroke:none"
         d="M 108.031,76.4883 V 63.3008 c -2.324,0.1992 -5.468,0.289 -9.4412,0.289 H 91.6602 V 12.8984 h 11.5278 c 1.832,0 3.445,0.0508 4.843,0.1329 V 0.0390625 C 107.148,0.0195313 106.23,0 105.277,0 H 76.2109 v 76.5391 h 28.2461 c 1.25,0 2.441,-0.0078 3.574,-0.0508 z M 76.293,101.281 V 177.82 H 91.7695 V 147.711 H 108.031 V 134.75 H 91.7695 V 101.281 H 76.293 Z M 153.484,0 V 76.5391 H 210.23 V 63.5898 H 168.938 V 46.6289 h 38.421 V 33.7383 H 168.938 V 12.8984 h 42.75 V 0 Z m 0,101.281 v 76.539 h 56.746 v -12.949 h -41.292 v -16.973 h 38.421 V 135.012 H 168.938 V 114.18 h 42.75 V 101.281 H 153.484 Z M 108.031,0.0390625 V 13.0313 c 1.903,0.1171 3.41,0.3203 4.512,0.5976 2.496,0.6211 4.586,1.6797 6.242,3.1797 1.66,1.4922 2.992,3.9727 4.047,7.3906 1.031,3.4219 1.566,8.1211 1.566,14.0313 0,5.9179 -0.535,10.4414 -1.566,13.6093 -1.055,3.1797 -2.519,5.6485 -4.387,7.4102 -1.886,1.7891 -4.273,2.9805 -7.16,3.6094 -0.801,0.1797 -1.887,0.332 -3.254,0.4414 v 13.1875 c 4.629,-0.1485 8.293,-0.6172 10.985,-1.4063 4.492,-1.3125 8.343,-3.6718 11.531,-7.0507 3.207,-3.3711 5.652,-7.5118 7.324,-12.3907 1.66,-4.9023 2.496,-10.9218 2.496,-18.1015 0,-6.2891 -0.781,-11.7305 -2.355,-16.2891 -1.903,-5.5703 -4.629,-10.0781 -8.192,-13.51172 -2.675,-2.6289 -6.297,-4.65625 -10.859,-6.11719 -2.84,-0.910152 -6.481,-1.421871 -10.93,-1.5820275 z M 254.934,76.5 V 63.4492 c -1.899,0.1016 -4.293,0.1406 -7.204,0.1406 h -7.464 V 41.8789 h 8.445 c 2.383,0 4.453,0.0625 6.223,0.1797 V 28.9297 c -1.45,-0.0391 -2.981,-0.0586 -4.602,-0.0586 H 240.266 V 0 h -15.457 v 76.5391 h 24.796 c 1.911,0 3.684,-0.0078 5.329,-0.0391 z m 0,101.32 v -18.148 l -0.114,0.297 -10.332,-28.41 h 10.446 V 118.672 H 239.73 l -6.312,-17.391 H 217.02 l 29.816,76.539 h 8.098 z M 108.031,147.711 h 14.02 v 30.109 h 15.445 v -76.539 h -15.445 v 33.469 h -14.02 v 12.961 z M 281.934,3.89063 V 0 h -1.52 z m 0,58.62887 V 43.4883 c -0.309,-0.8164 -0.661,-1.5977 -1.055,-2.3477 -1.715,-3.1992 -3.867,-5.7109 -6.504,-7.5508 -2.621,-1.8203 -5.293,-3.0312 -8.004,-3.621 -2.836,-0.5586 -6.644,-0.9102 -11.437,-1.0391 v 13.1289 c 2.754,0.1914 4.754,0.5312 6.004,1.0234 2.046,0.7891 3.652,2.0391 4.828,3.7578 1.164,1.711 1.75,3.6915 1.75,5.9493 0,2.7812 -0.817,5.082 -2.461,6.9023 -1.621,1.7969 -3.707,2.9375 -6.203,3.3906 -0.883,0.1563 -2.192,0.2891 -3.918,0.3672 V 76.5 c 6.418,-0.1289 10.773,-0.5 13.046,-1.1094 4.383,-1.1523 8.075,-3.6406 11.028,-7.4922 1.23,-1.5976 2.207,-3.3867 2.926,-5.3789 z m 0,68.4925 v -29.731 h -4.922 l -6.684,17.391 h -15.394 v 12.887 h 10.441 l -10.441,28.113 v 18.148 h 8.25 l 18.75,-46.808 z m 0,-29.731 v 29.731 l 11.906,-29.731 z m 0,-57.7927 c 1.011,2.7226 1.511,5.9023 1.511,9.5117 0,3.5508 -0.507,6.7188 -1.511,9.5195 V 43.4883 Z m 36.394,33.0508 V 58.3906 l -0.109,0.3008 -10.336,-28.4101 h 10.445 V 17.3906 H 303.125 L 296.813,0 h -14.879 v 3.89063 l 28.3,72.64847 h 8.094 z m 0,37.6409 v -12.899 h -15.883 v 75.918 h 15.453 V 114.18 h 0.43 z M 355.129,5.26172 V 0 h -14.715 l -6.687,17.3906 h -15.399 v 12.8907 h 10.442 l -10.442,28.1093 v 18.1485 h 8.254 z m 0,108.91828 v -12.899 h -36.801 v 12.899 h 36.801 z m 0,63.64 v -12.949 h -1.199 v 12.949 h 1.199 z m 0,-76.539 h 1.195 v 12.899 h -1.195 z M 355.129,0 V 5.26172 L 357.23,0 h -2.101 z m 41.418,76.5391 V 63.582 l -3.563,0.0078 H 380.938 V 44.1797 h 11.421 c 1.508,0 2.911,0.0117 4.188,0.0312 V 27.8516 l -0.055,0.0586 c -1.457,1.5507 -3.012,2.6015 -4.652,3.1796 -1.641,0.5821 -4.223,0.8594 -7.781,0.8594 h -3.121 V 0 h -15.473 v 76.5391 h 31.082 z m 0,101.2809 v -12.949 h -4.442 v -63.59 h -15.464 v 63.59 h -21.512 v 12.949 h 41.418 z M 762.816,0 v 63.5898 h -22.703 v 12.9493 h 60.825 V 63.5898 H 778.281 V 0 Z m -94.3,0 v 76.5391 h 15.043 l 31.336,-51.1094 v 51.1094 h 14.359 V 0 H 713.73 L 682.883,49.9219 V 0 h -14.367 z m -71.469,0 v 76.5391 h 56.742 V 63.5898 H 612.5 V 46.6289 h 38.422 V 33.7383 H 612.5 V 12.8984 h 42.754 V 0 h -58.207 z m -89.289,0 v 76.5391 h 23.133 L 544.773,24.332 558.5,76.5391 h 23.184 V 0 H 567.34 V 60.25 L 552.133,0 H 537.25 L 522.109,60.25 V 0 h -14.351 z m -47.891,0 v 63.5898 h -22.703 v 12.9493 h 60.828 V 63.5898 H 475.336 V 0 h -15.469 z m -35.094,101.281 v 76.539 h 15.469 v -30.109 h 30.285 v 30.109 h 15.453 v -76.539 h -15.453 v 33.469 h -30.285 v -33.469 h -15.469 z m -28.226,63.59 v 12.949 h 18.219 v -12.949 h -18.219 z m 0,-137.0194 v 16.3593 c 5,0.1094 8.238,0.3985 9.715,0.8985 1.84,0.6211 3.273,1.7109 4.336,3.2422 1.027,1.5273 1.558,3.4375 1.558,5.7382 0,2.5899 -0.691,4.6485 -2.062,6.2422 -1.371,1.5782 -3.317,2.5782 -5.824,3.0078 -0.993,0.129 -3.567,0.211 -7.723,0.2422 v 12.9571 h 1.465 c 8.179,0 14.113,-0.6875 17.824,-2.0586 3.707,-1.3711 6.68,-3.8203 8.906,-7.3321 2.231,-3.5273 3.332,-7.539 3.332,-12.0586 0,-5.7382 -1.691,-10.5 -5.062,-14.2382 -3.367,-3.7305 -8.426,-6.1016 -15.145,-7.0625 3.348,-1.9571 6.113,-4.0977 8.285,-6.4375 2.176,-2.3321 5.098,-6.4727 8.789,-12.4219 L 434.297,0 h -18.481 l -11.171,16.6602 c -3.93,5.8789 -6.625,9.6093 -8.098,11.1914 v 0" /></g></g></svg>